<?xml version="1.0" encoding="UTF-8" standalone="no"?><svg xmlns="http://www.w3.org/2000/svg" xmlns:xlink="http://www.w3.org/1999/xlink" contentScriptType="application/ecmascript" contentStyleType="text/css" height="357px" preserveAspectRatio="none" style="width:531px;height:357px;" version="1.1" viewBox="0 0 531 357" width="531px" zoomAndPan="magnify"><defs><filter height="300%" id="fbprtw20mtxod" width="300%" x="-1" y="-1"><feGaussianBlur result="blurOut" stdDeviation="2.0"/><feColorMatrix in="blurOut" result="blurOut2" type="matrix" values="0 0 0 0 0 0 0 0 0 0 0 0 0 0 0 0 0 0 .4 0"/><feOffset dx="4.0" dy="4.0" in="blurOut2" result="blurOut3"/><feBlend in="SourceGraphic" in2="blurOut3" mode="normal"/></filter></defs><g><line style="stroke: #A80036; stroke-width: 1.0; stroke-dasharray: 5.0,5.0;" x1="118" x2="118" y1="38.4883" y2="316.9727"/><line style="stroke: #A80036; stroke-width: 1.0; stroke-dasharray: 5.0,5.0;" x1="334" x2="334" y1="38.4883" y2="316.9727"/><line style="stroke: #A80036; stroke-width: 1.0; stroke-dasharray: 5.0,5.0;" x1="460" x2="460" y1="38.4883" y2="316.9727"/><rect fill="#E0FFFF" filter="url(#fbprtw20mtxod)" height="30.4883" rx="7" ry="7" style="stroke: #A80036; stroke-width: 1.5;" width="42" x="95" y="3"/><text fill="#000000" font-family="sans-serif" font-size="14" lengthAdjust="spacingAndGlyphs" textLength="28" x="102" y="23.5352">App</text><rect fill="#E0FFFF" filter="url(#fbprtw20mtxod)" height="30.4883" rx="7" ry="7" style="stroke: #A80036; stroke-width: 1.5;" width="42" x="95" y="315.9727"/><text fill="#000000" font-family="sans-serif" font-size="14" lengthAdjust="spacingAndGlyphs" textLength="28" x="102" y="336.5078">App</text><rect fill="#FEFECE" filter="url(#fbprtw20mtxod)" height="30.4883" rx="7" ry="7" style="stroke: #A80036; stroke-width: 1.5;" width="120" x="272" y="3"/><text fill="#000000" font-family="sans-serif" font-size="14" lengthAdjust="spacingAndGlyphs" textLength="106" x="279" y="23.5352">OfflineManager</text><rect fill="#FEFECE" filter="url(#fbprtw20mtxod)" height="30.4883" rx="7" ry="7" style="stroke: #A80036; stroke-width: 1.5;" width="120" x="272" y="315.9727"/><text fill="#000000" font-family="sans-serif" font-size="14" lengthAdjust="spacingAndGlyphs" textLength="106" x="279" y="336.5078">OfflineManager</text><rect fill="#FEFECE" filter="url(#fbprtw20mtxod)" height="30.4883" rx="7" ry="7" style="stroke: #A80036; stroke-width: 1.5;" width="104" x="406" y="3"/><text fill="#000000" font-family="sans-serif" font-size="14" lengthAdjust="spacingAndGlyphs" textLength="90" x="413" y="23.5352">KalturaPlayer</text><rect fill="#FEFECE" filter="url(#fbprtw20mtxod)" height="30.4883" rx="7" ry="7" style="stroke: #A80036; stroke-width: 1.5;" width="104" x="406" y="315.9727"/><text fill="#000000" font-family="sans-serif" font-size="14" lengthAdjust="spacingAndGlyphs" textLength="90" x="413" y="336.5078">KalturaPlayer</text><rect fill="#EEEEEE" filter="url(#fbprtw20mtxod)" height="3" style="stroke: #EEEEEE; stroke-width: 1.0;" width="516" x="3" y="69.1436"/><line style="stroke: #000000; stroke-width: 1.0;" x1="3" x2="519" y1="69.1436" y2="69.1436"/><line style="stroke: #000000; stroke-width: 1.0;" x1="3" x2="519" y1="72.1436" y2="72.1436"/><rect fill="#EEEEEE" filter="url(#fbprtw20mtxod)" height="23.3105" style="stroke: #000000; stroke-width: 2.0;" width="201" x="160.5" y="58.4883"/><text fill="#000000" font-family="sans-serif" font-size="13" font-weight="bold" lengthAdjust="spacingAndGlyphs" textLength="183" x="166.5" y="75.0566">Retrieve downloaded entry</text><polygon fill="#A80036" points="322,108.7988,332,112.7988,322,116.7988,326,112.7988" style="stroke: #A80036; stroke-width: 1.0;"/><line style="stroke: #A80036; stroke-width: 1.0;" x1="118" x2="328" y1="112.7988" y2="112.7988"/><text fill="#000000" font-family="sans-serif" font-size="13" lengthAdjust="spacingAndGlyphs" textLength="132" x="125" y="108.3672">getAssetInfo(entryId)</text><polygon fill="#A80036" points="129,138.1094,119,142.1094,129,146.1094,125,142.1094" style="stroke: #A80036; stroke-width: 1.0;"/><line style="stroke: #A80036; stroke-width: 1.0; stroke-dasharray: 2.0,2.0;" x1="123" x2="333" y1="142.1094" y2="142.1094"/><text fill="#000000" font-family="sans-serif" font-size="13" lengthAdjust="spacingAndGlyphs" textLength="58" x="135" y="137.6777">assetInfo</text><path d="M8,162.4199 L8,173.4199 A7,7 0 0 0 15,180.4199 L218,180.4199 A7,7 0 0 0 225,173.4199 L225,165.4199 L215,155.4199 L15,155.4199 A7,7 0 0 0 8,162.4199 " fill="#FFFF00" filter="url(#fbprtw20mtxod)" style="stroke: #A80036; stroke-width: 1.0;"/><path d="M215,155.4199 L215,161.9199 A3.5,3.5 0 0 0 218.5,165.4199 L225,165.4199 L215,155.4199 " fill="#FFFF00" style="stroke: #A80036; stroke-width: 1.0;"/><text fill="#000000" font-family="sans-serif" font-size="13" font-weight="bold" lengthAdjust="spacingAndGlyphs" textLength="66" x="14" y="172.9883">assuming</text><text fill="#000000" font-family="sans-serif" font-size="13" lengthAdjust="spacingAndGlyphs" textLength="126" x="84" y="172.9883">assetInfo is not null</text><polygon fill="#A80036" points="322,206.7305,332,210.7305,322,214.7305,326,210.7305" style="stroke: #A80036; stroke-width: 1.0;"/><line style="stroke: #A80036; stroke-width: 1.0;" x1="118" x2="328" y1="210.7305" y2="210.7305"/><text fill="#000000" font-family="sans-serif" font-size="13" lengthAdjust="spacingAndGlyphs" textLength="192" x="125" y="206.2988">getLocalPlaybackEntry(entryId)</text><polygon fill="#A80036" points="129,236.041,119,240.041,129,244.041,125,240.041" style="stroke: #A80036; stroke-width: 1.0;"/><line style="stroke: #A80036; stroke-width: 1.0; stroke-dasharray: 2.0,2.0;" x1="123" x2="333" y1="240.041" y2="240.041"/><text fill="#000000" font-family="sans-serif" font-size="13" lengthAdjust="spacingAndGlyphs" textLength="70" x="135" y="235.6094">mediaEntry</text><polygon fill="#A80036" points="448,265.3516,458,269.3516,448,273.3516,452,269.3516" style="stroke: #A80036; stroke-width: 1.0;"/><line style="stroke: #A80036; stroke-width: 1.0;" x1="118" x2="454" y1="269.3516" y2="269.3516"/><text fill="#000000" font-family="sans-serif" font-size="13" lengthAdjust="spacingAndGlyphs" textLength="134" x="125" y="264.9199">setMedia(mediaEntry)</text><polygon fill="#A80036" points="448,294.6621,458,298.6621,448,302.6621,452,298.6621" style="stroke: #A80036; stroke-width: 1.0;"/><line style="stroke: #A80036; stroke-width: 1.0;" x1="118" x2="454" y1="298.6621" y2="298.6621"/><text fill="#000000" font-family="sans-serif" font-size="13" lengthAdjust="spacingAndGlyphs" textLength="34" x="125" y="294.2305">play()</text><!--
@startuml Playback

skinparam backgroundColor transparent
skinparam roundCorner 14
skinparam NoteBackgroundColor #ffff00

participant App #lightcyan
participant OfflineManager as Offline
participant KalturaPlayer as Player

== Retrieve downloaded entry ==
App->Offline: getAssetInfo(entryId)
return assetInfo

note over App: **assuming** assetInfo is not null

App->Offline: getLocalPlaybackEntry(entryId)
return mediaEntry

App->Player: setMedia(mediaEntry)
App->Player: play()

@enduml

PlantUML version 1.2018.01(Sun Jan 28 20:08:22 IST 2018)
(GPL source distribution)
Java Runtime: OpenJDK Runtime Environment
JVM: OpenJDK 64-Bit Server VM
Java Version: 1.8.0_152-release-915-b08
Operating System: Mac OS X
OS Version: 10.13.3
Default Encoding: US-ASCII
Language: en
Country: IL
--></g></svg>