<?xml version="1.0" encoding="UTF-8" standalone="no"?><svg xmlns="http://www.w3.org/2000/svg" xmlns:xlink="http://www.w3.org/1999/xlink" contentScriptType="application/ecmascript" contentStyleType="text/css" height="387px" preserveAspectRatio="none" style="width:531px;height:387px;" version="1.1" viewBox="0 0 531 387" width="531px" zoomAndPan="magnify"><defs><filter height="300%" id="f3db076o95u32" width="300%" x="-1" y="-1"><feGaussianBlur result="blurOut" stdDeviation="2.0"/><feColorMatrix in="blurOut" result="blurOut2" type="matrix" values="0 0 0 0 0 0 0 0 0 0 0 0 0 0 0 0 0 0 .4 0"/><feOffset dx="4.0" dy="4.0" in="blurOut2" result="blurOut3"/><feBlend in="SourceGraphic" in2="blurOut3" mode="normal"/></filter></defs><g><text fill="#000000" font-family="sans-serif" font-size="14" font-weight="bold" lengthAdjust="spacingAndGlyphs" textLength="102" x="210" y="23.5352">Playback Flow</text><line style="stroke: #A80036; stroke-width: 1.0; stroke-dasharray: 5.0,5.0;" x1="118" x2="118" y1="68.9766" y2="347.4609"/><line style="stroke: #A80036; stroke-width: 1.0; stroke-dasharray: 5.0,5.0;" x1="334" x2="334" y1="68.9766" y2="347.4609"/><line style="stroke: #A80036; stroke-width: 1.0; stroke-dasharray: 5.0,5.0;" x1="460" x2="460" y1="68.9766" y2="347.4609"/><rect fill="#E0FFFF" filter="url(#f3db076o95u32)" height="30.4883" rx="7" ry="7" style="stroke: #A80036; stroke-width: 1.5;" width="42" x="95" y="33.4883"/><text fill="#000000" font-family="sans-serif" font-size="14" lengthAdjust="spacingAndGlyphs" textLength="28" x="102" y="54.0234">App</text><rect fill="#E0FFFF" filter="url(#f3db076o95u32)" height="30.4883" rx="7" ry="7" style="stroke: #A80036; stroke-width: 1.5;" width="42" x="95" y="346.4609"/><text fill="#000000" font-family="sans-serif" font-size="14" lengthAdjust="spacingAndGlyphs" textLength="28" x="102" y="366.9961">App</text><rect fill="#FEFECE" filter="url(#f3db076o95u32)" height="30.4883" rx="7" ry="7" style="stroke: #A80036; stroke-width: 1.5;" width="120" x="272" y="33.4883"/><text fill="#000000" font-family="sans-serif" font-size="14" lengthAdjust="spacingAndGlyphs" textLength="106" x="279" y="54.0234">OfflineManager</text><rect fill="#FEFECE" filter="url(#f3db076o95u32)" height="30.4883" rx="7" ry="7" style="stroke: #A80036; stroke-width: 1.5;" width="120" x="272" y="346.4609"/><text fill="#000000" font-family="sans-serif" font-size="14" lengthAdjust="spacingAndGlyphs" textLength="106" x="279" y="366.9961">OfflineManager</text><rect fill="#FEFECE" filter="url(#f3db076o95u32)" height="30.4883" rx="7" ry="7" style="stroke: #A80036; stroke-width: 1.5;" width="104" x="406" y="33.4883"/><text fill="#000000" font-family="sans-serif" font-size="14" lengthAdjust="spacingAndGlyphs" textLength="90" x="413" y="54.0234">KalturaPlayer</text><rect fill="#FEFECE" filter="url(#f3db076o95u32)" height="30.4883" rx="7" ry="7" style="stroke: #A80036; stroke-width: 1.5;" width="104" x="406" y="346.4609"/><text fill="#000000" font-family="sans-serif" font-size="14" lengthAdjust="spacingAndGlyphs" textLength="90" x="413" y="366.9961">KalturaPlayer</text><rect fill="#EEEEEE" filter="url(#f3db076o95u32)" height="3" style="stroke: #EEEEEE; stroke-width: 1.0;" width="516" x="3" y="99.6318"/><line style="stroke: #000000; stroke-width: 1.0;" x1="3" x2="519" y1="99.6318" y2="99.6318"/><line style="stroke: #000000; stroke-width: 1.0;" x1="3" x2="519" y1="102.6318" y2="102.6318"/><rect fill="#EEEEEE" filter="url(#f3db076o95u32)" height="23.3105" style="stroke: #000000; stroke-width: 2.0;" width="201" x="160.5" y="88.9766"/><text fill="#000000" font-family="sans-serif" font-size="13" font-weight="bold" lengthAdjust="spacingAndGlyphs" textLength="183" x="166.5" y="105.5449">Retrieve downloaded entry</text><polygon fill="#A80036" points="322,139.2871,332,143.2871,322,147.2871,326,143.2871" style="stroke: #A80036; stroke-width: 1.0;"/><line style="stroke: #A80036; stroke-width: 1.0;" x1="118" x2="328" y1="143.2871" y2="143.2871"/><text fill="#000000" font-family="sans-serif" font-size="13" lengthAdjust="spacingAndGlyphs" textLength="132" x="125" y="138.8555">getAssetInfo(entryId)</text><polygon fill="#A80036" points="129,168.5977,119,172.5977,129,176.5977,125,172.5977" style="stroke: #A80036; stroke-width: 1.0;"/><line style="stroke: #A80036; stroke-width: 1.0; stroke-dasharray: 2.0,2.0;" x1="123" x2="333" y1="172.5977" y2="172.5977"/><text fill="#000000" font-family="sans-serif" font-size="13" lengthAdjust="spacingAndGlyphs" textLength="58" x="135" y="168.166">assetInfo</text><path d="M8,192.9082 L8,203.9082 A7,7 0 0 0 15,210.9082 L218,210.9082 A7,7 0 0 0 225,203.9082 L225,195.9082 L215,185.9082 L15,185.9082 A7,7 0 0 0 8,192.9082 " fill="#FFFF00" filter="url(#f3db076o95u32)" style="stroke: #A80036; stroke-width: 1.0;"/><path d="M215,185.9082 L215,192.4082 A3.5,3.5 0 0 0 218.5,195.9082 L225,195.9082 L215,185.9082 " fill="#FFFF00" style="stroke: #A80036; stroke-width: 1.0;"/><text fill="#000000" font-family="sans-serif" font-size="13" font-weight="bold" lengthAdjust="spacingAndGlyphs" textLength="66" x="14" y="203.4766">assuming</text><text fill="#000000" font-family="sans-serif" font-size="13" lengthAdjust="spacingAndGlyphs" textLength="126" x="84" y="203.4766">assetInfo is not null</text><polygon fill="#A80036" points="322,237.2188,332,241.2188,322,245.2188,326,241.2188" style="stroke: #A80036; stroke-width: 1.0;"/><line style="stroke: #A80036; stroke-width: 1.0;" x1="118" x2="328" y1="241.2188" y2="241.2188"/><text fill="#000000" font-family="sans-serif" font-size="13" lengthAdjust="spacingAndGlyphs" textLength="192" x="125" y="236.7871">getLocalPlaybackEntry(entryId)</text><polygon fill="#A80036" points="129,266.5293,119,270.5293,129,274.5293,125,270.5293" style="stroke: #A80036; stroke-width: 1.0;"/><line style="stroke: #A80036; stroke-width: 1.0; stroke-dasharray: 2.0,2.0;" x1="123" x2="333" y1="270.5293" y2="270.5293"/><text fill="#000000" font-family="sans-serif" font-size="13" lengthAdjust="spacingAndGlyphs" textLength="70" x="135" y="266.0977">mediaEntry</text><polygon fill="#A80036" points="448,295.8398,458,299.8398,448,303.8398,452,299.8398" style="stroke: #A80036; stroke-width: 1.0;"/><line style="stroke: #A80036; stroke-width: 1.0;" x1="118" x2="454" y1="299.8398" y2="299.8398"/><text fill="#000000" font-family="sans-serif" font-size="13" lengthAdjust="spacingAndGlyphs" textLength="134" x="125" y="295.4082">setMedia(mediaEntry)</text><polygon fill="#A80036" points="448,325.1504,458,329.1504,448,333.1504,452,329.1504" style="stroke: #A80036; stroke-width: 1.0;"/><line style="stroke: #A80036; stroke-width: 1.0;" x1="118" x2="454" y1="329.1504" y2="329.1504"/><text fill="#000000" font-family="sans-serif" font-size="13" lengthAdjust="spacingAndGlyphs" textLength="34" x="125" y="324.7188">play()</text><!--
@startuml Playback
title Playback Flow
skinparam backgroundColor transparent
skinparam roundCorner 14
skinparam NoteBackgroundColor #ffff00

participant App #lightcyan
participant OfflineManager as Offline
participant KalturaPlayer as Player

== Retrieve downloaded entry ==
App->Offline: getAssetInfo(entryId)
return assetInfo

note over App: **assuming** assetInfo is not null

App->Offline: getLocalPlaybackEntry(entryId)
return mediaEntry

App->Player: setMedia(mediaEntry)
App->Player: play()

@enduml

PlantUML version 1.2018.01(Sun Jan 28 20:08:22 IST 2018)
(GPL source distribution)
Java Runtime: OpenJDK Runtime Environment
JVM: OpenJDK 64-Bit Server VM
Java Version: 1.8.0_152-release-915-b08
Operating System: Mac OS X
OS Version: 10.13.3
Default Encoding: US-ASCII
Language: en
Country: IL
--></g></svg>